HIERARCHY
ROOT Hips
{
	OFFSET 0.000000 0.000000 0.000000
	CHANNELS 6 Xposition Yposition Zposition Xrotation Yrotation Zrotation
	JOINT Chest
	{
		OFFSET 0.000000 9.585900 0.002600
		CHANNELS 3 Xrotation Yrotation Zrotation
		JOINT Chest2
		{
			OFFSET 0.000000 9.601200 -0.005300
			CHANNELS 3 Xrotation Yrotation Zrotation
			JOINT Chest3
			{
				OFFSET 0.000000 9.561800 0.000000
				CHANNELS 3 Xrotation Yrotation Zrotation
				JOINT Chest4
				{
					OFFSET 0.000000 9.552100 0.000000
					CHANNELS 3 Xrotation Yrotation Zrotation
					JOINT Neck
					{
						OFFSET 0.000000 14.453000 0.000000
						CHANNELS 3 Xrotation Yrotation Zrotation
						JOINT Head
						{
							OFFSET 0.000000 8.936500 -0.011300
							CHANNELS 3 Xrotation Yrotation Zrotation
							End Site
							{
								OFFSET 0.000000 0.000000 0.000000
							}
						}
					}
					JOINT RightCollar
					{
						OFFSET -2.921100 9.558500 0.000000
						CHANNELS 3 Xrotation Yrotation Zrotation
						JOINT RightShoulder
						{
							OFFSET -13.519700 0.000000 0.000000
							CHANNELS 3 Xrotation Yrotation Zrotation
							JOINT RightElbow
							{
								OFFSET 0.000000 -29.696600 0.000000
								CHANNELS 3 Xrotation Yrotation Zrotation
								JOINT RightWrist
								{
									OFFSET 0.000000 -24.004700 0.000000
									CHANNELS 3 Xrotation Yrotation Zrotation
									End Site
									{
										OFFSET 0.000000 0.000000 0.000000
									}
								}
							}
						}
					}
					JOINT LeftCollar
					{
						OFFSET 2.921100 9.558500 0.000000
						CHANNELS 3 Xrotation Yrotation Zrotation
						JOINT LeftShoulder
						{
							OFFSET 13.519700 0.000000 0.000000
							CHANNELS 3 Xrotation Yrotation Zrotation
							JOINT LeftElbow
							{
								OFFSET 0.000000 -29.696600 0.000000
								CHANNELS 3 Xrotation Yrotation Zrotation
								JOINT LeftWrist
								{
									OFFSET 0.000000 -24.004700 0.000000
									CHANNELS 3 Xrotation Yrotation Zrotation
									End Site
									{
										OFFSET 0.000000 0.000000 0.000000
									}
								}
							}
						}
					}
				}
			}
		}
	}
	JOINT RightHip
	{
		OFFSET -7.771700 -0.012900 -0.001300
		CHANNELS 3 Xrotation Yrotation Zrotation
		JOINT RightKnee
		{
			OFFSET 0.000000 -40.869801 0.001200
			CHANNELS 3 Xrotation Yrotation Zrotation
			JOINT RightAnkle
			{
				OFFSET 0.000000 -39.717899 0.002100
				CHANNELS 3 Xrotation Yrotation Zrotation
				JOINT RightToe
				{
					OFFSET 0.000000 -4.965400 11.033500
					CHANNELS 3 Xrotation Yrotation Zrotation
					End Site
					{
						OFFSET 0.000000 0.000000 0.000000
					}
				}
			}
		}
	}
	JOINT LeftHip
	{
		OFFSET 7.771700 -0.012900 -0.001300
		CHANNELS 3 Xrotation Yrotation Zrotation
		JOINT LeftKnee
		{
			OFFSET 0.000000 -40.869801 0.001200
			CHANNELS 3 Xrotation Yrotation Zrotation
			JOINT LeftAnkle
			{
				OFFSET 0.000000 -39.717899 0.002100
				CHANNELS 3 Xrotation Yrotation Zrotation
				JOINT LeftToe
				{
					OFFSET 0.000000 -4.965400 11.033500
					CHANNELS 3 Xrotation Yrotation Zrotation
					End Site
					{
						OFFSET 0.000000 0.000000 0.000000
					}
				}
			}
		}
	}
}
MOTION
Frames: 5
Frame Time: 0.032
0.0 0.0 0.0 -176.594555 25.312418 178.391373 -1.317396 3.668821 0.875674 3.397580 3.289328 -1.711054 -2.456916 -0.035488 0.566039 1.849890 1.230350 0.608954 19.401728 0.586335 0.955932 -0.828377 2.945084 -1.022023 13.253242 2.493038 0.779109 -23.091683 -22.452749 -14.068178 -98.786911 -24.732376 1.762611 -5.713308 -15.277024 -27.786593 8.703966 -1.572127 -1.925314 -9.674107 28.811008 -0.527820 -78.909606 33.245638 -19.014825 6.615936 5.114712 6.353818 -71.119249 -4.375507 -4.906889 75.895689 -8.466200 -0.853428 -6.624011 -3.785013 -3.473330 1.195640 0.094662 0.293632 -73.731810 2.948913 22.900793 69.017771 17.758912 -2.421681 -13.625923 -20.088199 -1.753801 -0.350931 0.282094 -0.603109
0.0 0.0 0.0 -176.478414 25.274244 178.314506 -1.205445 3.541085 0.888441 3.458694 3.138461 -1.620575 -2.388328 -0.199994 0.651732 1.914413 1.087391 0.673914 19.473366 0.436553 0.976744 -0.752219 2.792109 -1.006243 13.359253 2.309583 0.809741 -22.998888 -22.725206 -14.035282 -98.756025 -25.081438 1.663156 -5.729804 -15.533037 -27.711054 8.839584 -1.740914 -1.827463 -9.622709 28.713121 -0.450572 -78.959657 33.201877 -19.001607 6.624326 5.027070 6.377689 -71.078719 -4.574886 -4.936768 75.904418 -8.566295 -0.870312 -6.557850 -3.960774 -3.446099 1.277017 -0.059759 0.318463 -73.653509 2.736374 22.916753 69.053008 17.654478 -2.454535 -13.544911 -20.267729 -1.661748 -0.278369 0.127572 -0.543440
0.0 0.0 0.0 -176.899687 25.082439 178.454374 -1.389860 3.744209 1.054300 3.056074 3.330428 -1.529055 -2.815680 0.004747 0.776182 1.525439 1.244387 0.799327 19.062257 0.624847 1.108806 -1.162447 3.031727 -0.825129 12.866817 2.573002 1.028036 -23.511553 -22.342249 -13.854684 -98.933303 -24.717674 1.818340 -6.039530 -15.236532 -27.605309 8.324583 -1.567098 -1.740741 -10.082520 28.973417 -0.256590 -79.285451 33.638238 -18.542073 6.195183 5.303090 6.502449 -71.363585 -4.260712 -4.703707 75.669596 -8.493756 -0.601048 -6.971712 -3.716062 -3.313337 0.863015 0.170524 0.496452 -73.981406 2.976103 23.127277 68.885518 17.745935 -2.219319 -13.982520 -20.030746 -1.604087 -0.705324 0.360467 -0.416074
0.0 0.0 0.0 -176.429879 25.271843 178.436151 -1.022049 3.801360 0.919589 3.419899 3.312161 -1.560425 -2.420772 -0.002946 0.775532 1.892179 1.261444 0.788974 19.438165 0.643323 0.932041 -0.734714 3.031364 -0.939577 13.313231 2.572275 0.895941 -23.008334 -22.457078 -13.900244 -98.789083 -25.020320 1.575322 -5.731675 -15.377693 -27.635999 8.749650 -1.573727 -1.783098 -9.636380 28.954231 -0.362341 -79.021286 33.605883 -18.929557 6.578340 5.331974 6.370751 -71.144002 -4.351723 -4.916269 75.872945 -8.348761 -0.835177 -6.600460 -3.772669 -3.467993 1.276075 0.184251 0.385624 -73.709209 2.889656 23.075864 69.111173 17.827130 -2.465079 -13.567505 -20.059943 -1.538783 -0.280027 0.369759 -0.471534
0.0 0.0 0.0 -176.465696 25.317597 178.268101 -1.039240 3.731657 1.074735 3.464959 3.245276 -1.698010 -2.384183 -0.080205 0.566807 1.929287 1.179639 0.636813 19.484779 0.607183 1.041621 -0.698615 2.967924 -0.870071 13.360215 2.500827 0.966735 -22.937732 -22.620620 -13.864750 -98.762712 -25.085888 1.252559 -5.705420 -15.471869 -27.773755 8.844524 -1.658447 -1.926320 -9.640609 28.994331 -0.401180 -79.186638 33.615637 -18.659734 6.549599 5.329511 6.439612 -71.044185 -4.483696 -4.868675 75.975029 -8.335567 -0.762232 -6.550790 -3.844579 -3.345900 1.317859 0.121585 0.466832 -73.635491 2.861460 22.909698 69.135188 17.849048 -2.377388 -13.518129 -20.118382 -1.725763 -0.236038 0.304078 -0.504453
